PathFileType	4	(X/Y/Z)	C:/Users/beibeiliu/ov580/test_trc/capture2\sequence.30_training_dense_left.trc
DataRate	CameraRate	NumFrames	NumMarkers	Units	OrigDataRate	OrigDataStartFrame	OrigNumFrames
120	120	24	19	mm	120	201	400
Frame#	Time	ThumbCMC			ThumbMCP			ThumbIP			ThumbTip			IndexMCP			IndexPIP			IndexTip			MiddleMCP			MiddlePIP			MiddleTip			RingMCP			RingPIP			RingTip			PinkyMCP			PinkyPIP			PinkyTip			BackHand1			BackHand2			BackHand3	
		X0	Y0	Z0	X1	Y1	Z1	X2	Y2	Z2	X3	Y3	Z3	X4	Y4	Z4	X5	Y5	Z5	X6	Y6	Z6	X7	Y7	Z7	X8	Y8	Z8	X9	Y9	Z9	X10	Y10	Z10	X11	Y11	Z11	X12	Y12	Z12	X13	Y13	Z13	X14	Y14	Z14	X15	Y15	Z15	X16	Y16	Z16	X17	Y17	Z17	X18	Y18	Z18	
200	1.66667	-193.173	81.7841	8.62756	-178.202	91.689	-14.9606	-170.027	97.0678	-41.5708	-163.552	83.6025	-61.8084	-190.864	68.1096	-65.9885	-173.384	76.201	-83.3514	-143.359	81.5596	-92.0965	-178.573	48.5654	-63.0152	-145.931	63.4039	-71.5155	-123.824	67.6483	-45.4189	-170.037	35.7598	-55.7655	-139.223	44.6849	-58.5159	-127.684	62.2548	-30.0669	-161.855	19.6031	-44.5369	-136.286	34.1626	-44.391	-128.454	54.0425	-18.0512	-201.803	22.3401	-11.0606	-206.514	21.4961	18.8498	-215.388	50.7859	2.80351	
201	1.675	-193.263	82.4298	8.17895	-177.465	94.5988	-13.406	-172.224	94.1935	-39.5861	-165.68	83.3954	-62.7296	-192.439	65.578	-62.7357	-172.005	72.3494	-86.2091	-148.633	76.7263	-94.5843	-176.667	52.4799	-63.0232	-142.981	63.371	-62.5131	-128.621	69.7051	-32.418	-162.603	33.7845	-55.2929	-134.618	48.0812	-45.5975	-135.088	60.4776	-13.3664	-157.903	19.7997	-43.7103	-133.45	38.7109	-34.4379	-139.066	52.4332	-8.29219	-201.532	21.3632	-14.9444	-207.464	24.2433	20.4149	-216.513	51.5186	3.19694	
202	1.68333	-192.485	81.931	11.8585	-178.89	86.1438	-17.0695	-172.682	88.5918	-42.6257	-165.923	81.3039	-65.7215	-195.15	67.6515	-61.5125	-176.342	73.5722	-87.43	-150.594	73.7742	-97.137	-175.925	52.6449	-60.4137	-142.037	66.292	-57.6343	-134.61	67.2465	-23.8552	-163.419	39.2082	-52.489	-137.991	51.6546	-42.9415	-142.003	60.2515	-10.1447	-155.146	24.1634	-42.0254	-135.937	38.7454	-30.8327	-145.978	51.3666	-1.08715	-201.035	23.5302	-15.2736	-208.501	24.1273	17.5355	-213.827	51.4128	-1.43935	
203	1.69167	-193.231	81.968	8.16395	-177.788	89.4796	-19.3085	-171.777	88.824	-45.7988	-167.17	75.8741	-64.0347	-193.885	65.4576	-62.7176	-179.111	74.1584	-85.2098	-150.996	74.6815	-98.2743	-173.857	51.5061	-58.6362	-142.74	65.7049	-54.2827	-142.524	70.9268	-19.2833	-160.319	35.762	-49.1793	-137.451	54.1537	-33.0707	-148.656	57.1845	-1.2938	-157.65	22.3507	-38.6031	-137.475	41.6671	-24.067	-151.08	49.645	0.462656	-199.361	19.9282	-15.2345	-206.163	19.0295	19.3569	-214.302	53.873	-0.842836	
204	1.7	-192.885	77.7054	9.13872	-179.12	88.2805	-17.8491	-172.154	85.5975	-40.5886	-166.504	72.2017	-66.1435	-192.605	69.7631	-65.7993	-173.669	71.0445	-85.9501	-146.695	76.6158	-97.6462	-170.946	49.0488	-58.3678	-141.939	62.0604	-52.8686	-145.275	63.8235	-15.0729	-160.799	38.3189	-48.4371	-137.86	53.1904	-29.8158	-150.003	55.1037	-2.06393	-156.446	21.8041	-38.135	-137.48	39.8973	-21.7024	-153.006	45.7008	5.93801	-201.083	22.431	-13.863	-206.418	22.9599	18.1468	-214.872	50.7032	0.926314	
205	1.70833	-193.454	80.9	8.63368	-178.833	88.2846	-14.6072	-173.456	82.2206	-44.7158	-167.322	72.4839	-65.3985	-193.36	66.3893	-61.4095	-174.328	75.4683	-85.3536	-146.93	75.8941	-95.5364	-172.089	51.2757	-58.5269	-140.849	59.7307	-49.9475	-149.653	62.587	-12.522	-156.399	35.2572	-48.8512	-136.714	50.139	-27.8669	-153.275	56.0633	-2.58291	-154.324	25.0785	-39.1214	-138.224	38.566	-19.949	-154.577	46.963	4.31765	-202.583	20.4511	-14.14	-204.459	17.437	19.2281	-213.726	48.096	1.41256	
206	1.71667	-192.551	78.0535	8.23687	-178.729	85.872	-15.6891	-173.299	80.4618	-42.71	-167.713	68.3176	-67.5212	-192.085	63.2097	-62.5732	-171.123	73.7603	-85.5194	-143.464	76.778	-91.8621	-170.479	51.4086	-58.267	-140.94	57.8794	-47.3967	-151.281	62.6949	-13.4028	-159.461	33.2077	-47.4705	-138.154	49.9655	-28.9637	-157.781	49.9388	0.126517	-157.473	20.1887	-36.8203	-139.83	38.3031	-19.3307	-160.813	45.3525	6.01225	-202.858	20.5561	-14.1522	-206.063	17.2355	21.1928	-213.287	50.7044	-0.686851	
207	1.725	-192.823	76.7506	11.0748	-178.79	86.478	-15.1285	-174.638	81.8369	-44.4521	-168.581	71.2345	-65.5427	-192.265	64.7792	-63.893	-172.503	72.8576	-83.0005	-143.015	75.5057	-85.6298	-169.723	49.5088	-57.8575	-141.892	59.0337	-47.7313	-153.336	60.2189	-10.8426	-160.5	37.8567	-47.6697	-137.767	46.149	-28.6858	-156.777	51.2704	-2.25044	-153.261	19.3557	-37.1707	-137.676	35.8642	-17.2859	-160.945	38.5952	7.31128	-201.817	20.1009	-12.3074	-206.963	17.8812	18.2077	-213.342	48.5074	3.93716	
208	1.73333	-191.989	77.4815	13.0486	-180.244	83.9194	-14.9978	-174.646	84.2239	-44.1395	-168.094	68.9015	-66.6811	-192.212	61.918	-62.9096	-171.407	73.115	-83.6573	-141.61	74.8526	-81.1164	-172.321	48.1178	-56.9656	-143.544	60.5211	-46.4969	-156.563	58.8938	-9.39916	-160.274	32.5627	-47.8523	-140.793	51.0843	-27.8735	-159.659	50.4189	-0.540923	-156.719	23.2115	-38.2348	-140.685	38.4198	-16.9215	-157.55	40.3205	5.03635	-201.21	19.5288	-9.73625	-205	17.3222	20.8913	-212.554	46.5184	3.53063	
209	1.74167	-192.258	77.3548	12.9636	-179.852	86.9118	-12.0214	-175.704	83.0025	-44.864	-170.48	70.7644	-63.6169	-195.309	63.477	-59.2798	-171.907	69.5173	-81.0787	-140.167	73.1369	-76.3076	-172.895	47.4729	-56.9825	-143.064	60.1225	-45.6576	-156.047	64.1895	-10.8535	-164.272	36.0159	-48.3838	-140.572	50.8548	-32.3184	-158.921	52.3191	-1.1308	-156.361	20.6723	-38.1662	-138.976	35.6776	-18.4813	-161.391	40.4456	5.74781	-202.86	18.4565	-10.604	-206.698	21.0629	17.0916	-214.937	46.7364	5.35742	
210	1.75	-194.931	77.4919	10.5053	-180.491	86.5413	-12.8443	-176.874	83.3039	-41.4051	-171.978	72.6791	-65.4746	-196.937	67.6119	-62.9436	-172.973	74.1516	-82.669	-143.782	74.3885	-78.1643	-174.033	50.8384	-58.5687	-147.531	62.2507	-51.5049	-154.558	63.2544	-11.1021	-163.261	35.0244	-49.1311	-142.765	51.0722	-35.9684	-154.968	54.9923	-4.25838	-158.749	19.2169	-40.8092	-139.538	37.7008	-22.7572	-157.807	45.4001	2.15889	-206.075	20.534	-8.85311	-205.758	19.0673	23.0345	-215.445	49.5511	1.90893	
211	1.75833	-195.117	75.7412	12.1218	-183.143	84.8456	-15.3875	-178.12	86.6168	-43.6266	-172.992	75.7265	-61.8371	-199.013	68.5314	-63.6426	-178.08	72.2903	-82.4185	-144.627	76.7682	-83.4926	-177.887	48.6026	-59.8653	-149.591	62.2041	-57.8515	-147.266	66.6895	-17.5275	-163.099	36.1462	-53.75	-140.471	52.7829	-39.668	-150.649	58.7583	-7.06018	-158.704	22.6308	-44.4361	-140.296	38.9053	-31.565	-150.932	50.9698	-4.47306	-204.232	17.2286	-12.2569	-205.759	17.6255	18.274	-219.026	50.7453	2.3192	
212	1.76667	-199.068	81.0047	10.3356	-185.064	92.7368	-13.3911	-179.721	88.4533	-43.6221	-172.928	78.6661	-62.7635	-200.774	67.7312	-63.4885	-184.429	74.205	-84.9861	-154.91	80.1466	-93.7502	-184.418	52.2468	-61.4101	-151.43	60.0104	-66.0478	-138.992	73.3	-33.584	-169.524	35.4822	-56.6483	-142.122	53.4969	-50.8094	-138.91	63.2308	-23.0781	-164.05	19.9357	-44.0761	-139.347	38.7297	-42.3076	-140.763	52.5828	-14.4447	-202.202	17.3522	-10.4364	-206.338	17.0511	20.5375	-214.981	46.0232	1.07728	
213	1.775	-198.898	76.2664	11.3102	-185.26	94.5041	-14.2228	-180.125	91.4684	-42.1414	-172.834	86.6232	-68.1159	-201.739	65.4826	-66.6113	-189.024	73.9603	-87.7935	-165.175	74.7324	-101.624	-184.023	49.2731	-68.8291	-159.524	58.8873	-78.651	-132.001	70.6724	-57.3027	-172.452	31.1376	-60.2944	-145.132	48.0914	-66.2744	-131.699	65.605	-45.3181	-164.208	18.3193	-48.6536	-141.1	35.5602	-55.3064	-129.92	57.8473	-34.2257	-201.062	16.7355	-12.105	-203.836	17.3333	18.151	-216.864	48.5973	2.40426	
214	1.78333	-200.196	78.1017	8.55713	-185.605	93.3969	-16.7974	-178.287	96.9996	-42.4982	-170.508	96.3224	-62.4128	-203.727	65.8987	-67.17	-190.47	70.7916	-88.9359	-169.451	77.9608	-108.334	-189.713	45.9226	-67.9079	-164.39	59.0537	-88.0031	-134.487	73.0533	-81.3208	-174.341	27.2692	-62.1751	-150.659	38.6129	-76.8196	-126.915	60.8551	-65.2371	-165.372	13.8141	-50.1927	-141.197	27.1603	-64.6917	-122.064	51.253	-57.6049	-202.218	18.1781	-14.9136	-204.014	19.3658	16.3758	-217.524	44.6373	-0.738429	
215	1.79167	-198.934	76.7222	5.37007	-184.253	94.1917	-14.9382	-175.76	101.273	-40.1186	-168.273	103.656	-58.8086	-203.107	63.5442	-63.0913	-191.513	70.7679	-88.0769	-171.882	76.8429	-106.193	-189.156	42.8154	-71.2944	-172.302	52.5064	-90.5632	-139.136	68.7421	-98.2792	-176.908	27.426	-67.2323	-154.417	32.6913	-82.0682	-132.774	54.1295	-85.3675	-164.606	10.1118	-51.9002	-146.841	18.0854	-68.9488	-123.914	38.4727	-77.663	-198.626	17.1754	-13.9077	-206.085	19.1592	17.1492	-217.661	44.8066	-4.19776	
216	1.8	-200.387	75.1848	9.47907	-182.772	92.4446	-16.1435	-175.144	102.396	-37.1981	-167.13	104.94	-59.836	-203.021	63.7967	-64.5719	-186.345	73.6775	-89.5416	-167.321	81.2531	-103.312	-193.093	43.615	-68.3847	-173.739	51.4939	-94.3999	-143.858	62.151	-104.589	-179.025	24.6599	-61.617	-158.309	29.8107	-84.6427	-137.07	48.5787	-96.1218	-166.851	10.6463	-50.7967	-149.807	12.904	-68.7315	-129.665	26.6699	-86.4947	-200.862	18.2508	-14.019	-201.971	15.1329	15.1838	-216.361	42.3093	-2.55025	
217	1.80833	-201.695	77.3363	4.81433	-182.238	91.6976	-15.8053	-173.17	100.177	-34.924	-164.786	102.492	-57.3497	-200.878	64.333	-65.1017	-184.757	73.0237	-83.7623	-159.963	86.6579	-93.8127	-191.202	39.6178	-71.7371	-175.667	47.5576	-92.7492	-148.98	59.1499	-107.547	-178.249	22.1716	-63.5098	-161.265	24.2141	-83.9461	-141.808	43.5528	-102.043	-164.881	9.30729	-45.4814	-147.645	7.29061	-66.0499	-130.192	19.6698	-87.4211	-199.54	16.1754	-12.5385	-200.92	15.2136	18.4212	-216.185	39.6745	-1.65214	
218	1.81667	-201.691	74.6333	5.02415	-182.408	90.4216	-12.6297	-172.82	98.3921	-37.0809	-162.523	102.564	-57.933	-199.269	61.4808	-62.9379	-180.356	73.3958	-80.3908	-153.633	89.0932	-83.164	-191.025	34.6393	-69.6944	-175.447	42.0172	-90.6056	-149.233	57.6839	-107.715	-178.623	18.3963	-58.8215	-164.328	23.7747	-85.9726	-145.561	35.4357	-101.169	-162.967	6.1912	-41.9663	-150.014	8.62679	-67.6035	-132.678	14.162	-88.9581	-197.419	14.4045	-10.2765	-200.404	11.5396	18.1742	-217.516	36.2464	1.39812	
219	1.825	-201.805	72.8851	5.51767	-182.84	91.5515	-13.3273	-171.542	98.1151	-40.989	-160.706	99.5957	-56.3729	-199.333	59.207	-63.0331	-177.202	71.5395	-79.9368	-149.048	90.1082	-74.496	-191.661	33.3253	-66.9004	-175.258	38.1656	-91.4299	-150.2	54.281	-107.155	-178.022	16.4603	-62.6307	-166.896	21.1853	-83.7416	-146.193	33.3551	-104.779	-163.813	8.25561	-44.2745	-147.943	4.24597	-63.9545	-134.923	11.065	-85.9812	-194.141	13.5517	-10.4422	-201.429	12.3383	18.0735	-215.367	35.0658	-1.53197	
220	1.83333	-202.994	73.851	4.99787	-182.953	90.682	-14.9401	-171.645	100.717	-38.3252	-159.617	97.2062	-59.9556	-197.835	56.3298	-64.1555	-175.716	72.713	-80.4248	-152.424	87.7141	-76.1189	-193.984	33.3213	-66.8197	-177.995	39.9699	-94.236	-151.295	57.3601	-109.007	-178.71	13.8796	-63.1065	-164.524	16.4678	-84.6099	-148.258	30.2354	-104.052	-160.615	2.68783	-47.2958	-148.795	2.52755	-64.9441	-134.525	9.22035	-89.1624	-191.521	10.3988	-11.8074	-199.191	14.4185	15.8995	-216.644	35.9222	-2.99113	
221	1.84167	-203.76	74.4721	4.48928	-182.346	90.9267	-17.783	-170.607	98.5986	-42.5007	-159.038	97.4976	-62.6063	-198.61	53.6396	-64.1313	-178.526	68.409	-81.2261	-152.271	85.4685	-75.9449	-195.797	31.4566	-69.1132	-176.24	36.797	-94.8234	-150.177	55.5168	-108.67	-181.905	14.9465	-61.9127	-166.463	16.2248	-86.3681	-147.238	28.8867	-107.098	-163.648	4.50802	-48.3545	-148.723	1.32515	-65.8725	-132.75	2.81864	-88.5479	-193.738	12.0328	-12.8809	-199.054	9.69219	21.392	-218.17	36.1172	-3.83201	
222	1.85	-203.527	72.0333	3.71124	-182.984	89.2666	-19.2754	-172.6	97.024	-44.3195	-159.74	94.5237	-65.9811	-202.61	53.7442	-63.6949	-182.734	68.6146	-81.7197	-156.627	84.434	-78.7394	-196.472	29.954	-66.5151	-178.172	38.2476	-95.5229	-151.143	54.8281	-108.202	-183.483	13.642	-62.9787	-168.892	13.8534	-86.0422	-149.846	24.8026	-106.283	-163.94	4.33405	-43.0748	-147.706	-0.226616	-67.4853	-133.718	-0.958583	-89.4974	-193.393	9.02009	-11.8634	-199.078	12.1694	19.2698	-215.68	32.7277	0.823081	
223	1.85833	-205.696	72.303	3.95471	-184.772	88.0217	-13.6564	-174.61	92.539	-39.4028	-163.232	95.925	-62.893	-202.847	52.9893	-64.4669	-181.693	65.6291	-81.3816	-154.78	82.1844	-77.5165	-194	26.7912	-67.8398	-181.397	36.3466	-93.976	-155.227	55.4245	-109.72	-185.07	13.0121	-60.5694	-170.03	14.0187	-87.6442	-155.576	23.9673	-106.159	-165.284	2.32355	-47.8886	-152.533	0.208778	-67.3332	-137.43	-4.48589	-88.8964	-197.681	9.84759	-11.197	-198.443	6.6086	17.9559	-215.395	31.9138	0.295665	
